<svg width="812" height="417" viewBox="0 0 812 417" fill="none" xmlns="http://www.w3.org/2000/svg">
<g clip-path="url(#clip0_567_13567)">
<g filter="url(#filter0_i_567_13567)">
<path d="M256.553 245.541L298.226 79.7092L298.307 266.957L316.631 259.291L356.757 61.6444L356.825 214.38C356.832 229.176 355.815 236.828 335.965 245.514V251.638C355.822 243.978 375.163 236.822 391.452 231.718V228.143C379.74 229.679 375.156 225.091 375.149 213.354L375.068 38.8629C375.068 22.0282 385.749 12.8394 393.893 12.3229L392.869 8.23828C377.089 9.77427 366.401 13.356 356.73 18.9698L316.597 211.702L316.516 34.8054L313.966 31.747C291.064 47.5758 269.682 52.6867 243.722 58.3074C219.797 63.4183 199.954 80.7763 199.96 106.283C199.967 126.693 212.703 143.011 236.12 143.004C258.011 142.997 275.819 124.62 275.812 103.191H272.754C272.754 116.457 259.537 138.403 236.113 138.41C212.696 138.423 212.174 112.91 212.174 107.296C212.174 101.682 216.229 70.5613 242.698 63.4047C261.022 58.2938 282.913 55.2218 297.676 47.0525L246.862 245.548C236.188 287.387 207.19 326.69 170.535 326.704V329.762C194.461 331.285 238.744 315.959 256.532 245.541" fill="#F1F0EC"/>
</g>
<g filter="url(#filter1_i_567_13567)">
<path d="M411.271 142.405C422.474 142.405 430.612 132.19 430.606 118.923C430.606 117.394 430.097 114.329 429.588 112.8L426.028 113.309C426.537 115.348 427.045 117.904 427.052 119.943C427.052 129.124 420.44 136.784 414.838 136.784C408.728 136.784 405.67 131.177 405.161 119.949C404.137 103.115 416.344 88.8218 425.513 88.815C435.699 88.815 437.224 96.9707 437.231 106.159V116.877C437.238 129.634 429.609 138.816 418.412 148.005C407.724 156.684 386.864 170.467 386.871 197.51C386.885 221.488 400.122 227.095 407.25 227.095C423.926 227.088 430.07 212.496 437.272 193.486V201.064C437.279 209.737 443.389 215.344 450.008 215.344C458.661 215.344 466.806 206.148 468.84 198.495L466.29 196.966C464.764 200.534 463.747 203.09 460.18 203.09C457.128 203.09 455.596 199.012 455.596 195.947L455.562 114.825C455.555 92.3764 450.455 83.7041 429.582 83.7109C414.818 83.7177 394.968 97.5008 394.982 124.034C395.497 136.791 400.59 142.398 411.278 142.391M437.245 168.414C436.743 189.334 425.051 219.952 414.357 219.958C405.704 219.958 405.697 209.247 405.69 198.02C405.676 173.532 415.856 161.795 425.011 149.541C427.676 145.98 433.433 140.474 437.224 134.052L437.238 168.414H437.245Z" fill="#F1F0EC"/>
</g>
<g filter="url(#filter2_i_567_13567)">
<path d="M554.803 77.2087L554.851 179.59C554.864 199.49 570.137 207.136 580.316 207.129C590.502 207.129 593.045 203.554 599.148 196.914L596.09 194.365C594.564 195.894 591.003 199.979 585.91 199.469C580.818 198.959 573.181 196.921 573.175 180.596L573.127 77.4126C581.543 77.6913 590.413 78.2146 599.752 79.0437H599.596C607.232 80.5797 608.256 85.1741 608.256 94.356L608.297 180.582C608.303 194.358 607.286 202.521 600.165 202.521H598.131V206.096C623.589 208.128 645.48 211.689 671.447 218.309V214.224C661.769 211.166 661.769 207.598 661.763 198.409L661.559 176.62C664.658 141.421 676.323 96.9591 685.647 99.4126C688.19 99.9223 689.723 104 689.723 112.679L689.764 210.636C689.77 228.49 701.489 236.652 726.438 256.539C742.735 269.289 756.488 281.012 759.038 296.318C760.57 304.99 761.588 313.153 760.577 321.825C764.646 313.662 769.224 303.454 766.674 290.188C765.141 280.496 759.533 270.294 747.312 258.564C723.373 235.619 708.101 227.973 708.088 211.642L707.538 123.886C707.525 101.948 698.871 94.8114 692.253 92.7725C677.014 87.546 667.744 108.058 661.254 144.418L660.691 83.6041L631.673 78.5136V82.0817C640.835 83.6109 643.384 85.6498 643.391 95.8512L643.432 185.645C643.432 194.827 643.947 199.931 642.421 202.99C641.404 204.519 639.878 206.565 636.311 206.565C629.692 206.565 626.634 201.467 626.634 191.769L626.586 82.0749V77.4806C607.022 74.4766 589.233 72.7163 573.127 72.1998L573.093 4.03186C561.89 1.48321 552.728 0.470546 542.549 -0.0391846V4.04545C550.694 4.04545 554.769 6.58731 554.783 30.5718L554.803 72.1794C550.422 72.3221 543.627 72.5668 539.531 72.927V77.5213C543.634 77.3378 550.422 77.2223 554.803 77.1747" fill="#F1F0EC"/>
</g>
<g filter="url(#filter3_i_567_13567)">
<path d="M479.975 92.8899L480.023 188.807C480.023 195.441 479.521 203.603 470.868 207.178V210.753C482.58 208.707 498.36 206.152 509.557 205.635V202.067C503.386 201.592 498.991 198.458 498.415 184.403C500.517 138.752 508.065 109.521 516.121 89.3082C517.654 92.8831 521.214 94.9152 524.273 94.9152C530.892 94.9152 534.961 90.8306 534.961 82.6681C534.961 76.5445 529.861 70.9375 523.757 70.9375C516.121 70.9375 513.07 77.0679 511.035 82.1652C507 93.6375 502.083 114.917 498.333 136.727L498.306 75.0289C487.103 76.0552 476.415 78.1009 465.219 80.1466V83.7147C470.312 83.7147 479.982 84.2177 479.989 92.8899" fill="#F1F0EC"/>
</g>
<g filter="url(#filter4_i_567_13567)">
<path d="M177.704 388.945C177.704 388.945 177.196 388.436 177.196 387.926C177.704 387.416 177.704 386.906 177.704 386.906H181.265C181.773 386.906 182.79 387.416 183.814 387.416C184.323 387.416 185.34 386.906 186.866 386.906C189.409 386.906 190.433 388.436 189.409 390.984C189.409 392.004 188.901 392.514 188.392 392.514C187.375 394.552 187.375 396.598 187.375 398.637C187.883 400.166 187.375 401.695 186.866 403.741C186.866 405.27 185.34 406.806 184.323 408.336C182.797 410.374 181.271 412.42 179.745 414.969C179.237 415.479 179.237 416.498 179.237 417.008C180.254 417.008 180.254 416.498 181.271 416.498C181.271 416.498 182.289 415.988 182.797 416.498C185.347 417.008 187.89 415.988 189.925 414.962C191.959 413.943 193.994 413.943 196.035 414.962H198.585C200.111 414.452 202.145 413.943 203.162 412.916C205.197 411.897 206.723 411.38 208.255 411.89C211.822 412.91 214.365 410.361 216.4 409.335C216.909 405.76 219.96 406.779 222.002 405.76C222.002 405.25 222.51 405.25 222.51 405.76C224.036 407.289 224.545 405.76 225.562 405.25C227.596 403.211 229.631 402.185 232.181 401.675C233.198 401.675 233.707 400.656 234.724 400.146C236.25 398.107 237.775 396.061 239.301 393.513C241.336 391.474 242.862 390.957 245.412 390.957C247.955 390.957 249.487 390.957 251.013 391.467C254.58 393.506 256.615 392.996 258.649 390.441C260.175 388.402 260.684 386.866 262.21 384.827C262.718 384.317 263.227 382.788 264.244 382.278C265.261 381.768 266.787 380.232 268.828 379.213C269.846 378.194 271.88 377.167 273.921 376.658L278.499 375.122C280.533 374.612 281.557 375.122 282.575 376.141C285.118 379.199 286.65 379.709 289.193 377.16C293.262 374.095 294.788 370.527 293.771 365.423C293.262 363.894 293.262 362.874 293.262 361.338C292.754 359.299 293.262 357.77 295.806 357.764C296.823 357.254 298.857 356.744 300.899 356.228C302.424 355.718 302.933 356.228 303.442 357.757V360.305C303.442 362.854 302.933 362.861 305.991 363.364C308.026 363.873 309.05 365.912 308.541 368.468C307.524 369.997 307.016 372.552 306.507 373.572C305.998 375.611 305.998 377.657 306.507 379.186C307.524 381.734 306.507 384.29 305.998 386.329C302.947 392.452 300.403 399.086 294.809 403.17C294.3 403.17 294.3 404.19 294.3 404.19C294.809 404.19 295.317 403.68 295.826 403.68H296.843C295.826 405.209 296.843 405.209 296.843 404.699C300.403 401.634 304.479 402.144 307.531 402.654C310.589 403.163 313.132 402.137 315.676 401.628C322.294 399.582 327.381 396.014 331.45 389.883C331.958 388.864 332.975 388.354 333.993 387.335C336.027 384.269 339.079 381.721 342.131 379.165C343.656 376.61 346.206 376.61 348.241 379.165C350.275 381.204 351.299 383.243 350.282 386.818C349.773 389.367 349.265 391.406 351.815 393.451C353.856 394.981 355.89 396.51 358.942 396C362.509 395.49 364.035 396.51 366.07 399.058C367.595 401.097 368.619 403.653 370.145 404.665C372.695 406.195 374.73 407.724 376.764 409.763C377.781 410.782 379.307 411.802 380.84 410.782C383.383 408.737 385.933 408.737 388.476 409.246C392.043 409.756 395.095 408.22 396.621 405.671C397.638 403.632 398.146 403.123 400.69 404.142L403.748 406.181C406.8 407.201 409.858 405.155 409.35 401.587C408.841 397.509 410.869 393.424 413.419 390.869C413.927 389.849 415.453 389.34 415.962 388.83C416.47 389.849 416.47 390.869 416.47 391.888C416.979 392.398 416.47 393.417 416.47 393.417C415.962 394.947 415.453 394.947 414.436 396.483C412.91 398.522 412.91 399.031 415.453 400.051C418.512 402.599 418.512 403.619 415.453 405.665V406.684C418.003 409.233 424.615 407.194 425.632 403.109C426.141 400.554 426.649 398.515 425.632 395.966C425.632 392.908 428.175 388.313 430.718 387.287C431.227 386.777 432.244 386.777 432.753 387.287V388.307C434.787 387.287 437.337 386.771 438.355 383.712C438.355 383.202 439.372 382.693 439.88 382.693C441.915 381.673 443.949 381.164 445.984 379.628C449.544 377.072 451.07 372.485 454.637 370.439C454.637 369.929 455.146 369.419 454.637 369.419C454.637 368.91 454.637 368.4 454.129 368.4C454.129 367.89 453.62 367.89 453.111 367.89L452.094 368.91C448.025 372.994 443.949 376.053 439.88 380.137C435.296 383.202 431.227 385.758 425.625 387.287C423.591 387.797 422.058 386.777 421.55 385.248C420.532 381.673 419 378.615 420.017 375.047C420.526 373.518 420.526 372.491 420.017 371.472C420.017 365.858 416.45 362.8 411.357 363.826C408.814 364.336 407.288 364.336 405.247 363.316C403.212 362.806 401.171 362.806 399.137 362.806H393.535C392.518 362.806 391.501 362.806 392.518 364.342C394.044 365.362 392.518 367.408 391.501 368.427C390.483 368.937 389.975 368.937 389.466 369.447C385.906 370.976 384.882 373.021 387.432 376.08C388.449 377.099 388.449 377.609 388.449 378.119C388.957 379.138 388.957 380.158 388.449 380.158C388.449 380.667 386.923 381.177 386.414 380.667C385.397 379.648 383.864 378.628 383.864 377.099C383.349 373.531 383.864 370.976 384.875 367.408C384.875 366.388 386.909 365.878 387.927 364.342C388.266 364.342 388.435 364.173 388.435 363.833C388.944 362.813 389.452 362.813 388.435 362.304C384.36 359.245 380.291 359.755 376.73 362.82C375.204 365.376 372.654 366.395 370.62 367.414C370.111 367.924 368.586 368.434 368.586 368.434C364.517 372.009 359.932 372.518 355.863 373.545C354.846 374.054 353.32 374.054 352.296 372.525C351.279 370.996 350.77 369.46 351.781 366.911C352.798 365.382 353.815 363.846 354.324 362.317C355.341 360.788 356.867 359.259 357.376 357.213C359.41 352.109 359.919 345.985 358.895 340.372C357.877 336.287 357.871 332.209 359.905 327.615C363.465 319.452 368.043 311.283 374.655 305.159C377.198 303.12 379.233 300.565 381.274 298.016C384.332 295.468 386.367 295.977 387.893 299.036C388.401 300.055 388.401 301.075 388.401 301.584C388.91 303.623 388.401 305.159 387.384 306.689C383.824 310.263 383.824 314.851 386.882 318.936C387.391 319.955 387.899 320.465 388.408 320.975V323.523C387.899 323.523 386.882 324.033 385.865 323.523C384.848 323.014 383.315 322.504 381.789 321.484C379.246 320.465 377.72 321.484 377.72 324.549C377.212 325.059 377.212 325.569 377.72 326.079C377.72 327.608 378.738 328.627 379.253 329.647C380.27 332.195 380.786 334.751 380.786 337.3C379.768 339.855 378.243 339.855 376.201 340.365V340.874C374.167 341.894 374.167 342.913 375.184 344.449C376.71 344.959 377.734 345.979 379.26 346.998C380.786 348.017 381.803 347.508 382.827 345.972C382.827 345.462 383.335 344.952 383.335 344.443C383.335 342.913 384.861 342.913 385.879 342.913C387.404 342.913 387.913 342.913 388.428 343.423C389.954 343.933 391.48 344.443 392.504 343.933C394.03 342.404 393.013 340.365 392.504 338.829C392.504 338.319 391.989 337.809 391.487 337.3C391.487 335.77 390.47 335.261 389.954 333.731C388.428 330.666 389.439 329.647 392.497 328.627C394.023 328.118 395.041 327.098 396.566 326.588C398.092 326.079 398.092 325.569 397.075 324.543C396.566 323.523 395.549 323.014 395.034 321.994C394.016 320.465 392.484 318.936 391.467 316.89C390.449 316.38 390.449 314.851 390.958 314.341C391.467 313.832 392.484 313.832 393.501 313.832C394.518 313.832 395.536 314.341 396.56 313.322C397.577 312.302 397.068 311.283 396.56 309.754L394.01 305.159C388.408 297.507 390.944 287.815 399.089 283.73C401.632 282.711 403.165 284.24 402.656 286.279C402.656 287.808 401.639 289.344 401.639 290.364C401.13 291.893 401.13 293.429 403.165 294.951C403.673 294.951 403.673 296.48 403.673 298.016C403.673 298.526 403.165 300.055 403.165 301.075C401.639 303.623 401.639 306.179 403.165 308.218C404.182 309.747 404.182 311.786 404.189 313.322C403.68 314.851 403.68 316.387 404.697 317.4C405.206 319.439 405.715 321.484 405.213 323.523C404.704 326.582 404.704 329.647 405.728 332.705V338.319C405.728 338.829 405.728 340.358 405.22 340.868L405.728 341.377C405.728 341.038 405.898 340.698 406.237 340.358C408.271 338.829 410.814 335.254 414.382 335.254C417.949 335.254 420.492 333.208 423.035 331.169L427.612 327.085C428.63 326.065 429.138 325.555 430.156 326.575C430.156 326.575 431.173 326.575 431.681 326.065C433.207 325.046 434.74 324.026 435.757 321.98C438.809 317.386 442.878 313.811 444.404 308.204C444.404 307.694 445.421 307.185 445.93 306.165C448.988 304.12 449.999 300.551 449.999 298.003V289.84C449.999 286.782 452.542 284.226 456.102 285.246C461.704 285.756 464.247 284.22 466.79 280.142C468.316 277.586 469.333 275.038 472.385 274.018L474.419 272.489C476.453 269.934 477.986 269.934 474.928 266.366C472.886 264.327 472.378 261.771 472.378 258.203C472.378 256.164 472.886 253.609 474.921 252.589C475.938 251.06 476.447 251.06 477.464 252.589C478.481 254.118 477.973 255.138 476.955 256.674C474.921 258.72 475.429 260.249 476.955 262.288C477.973 263.307 478.99 264.836 479.505 266.366C480.522 267.385 481.54 268.404 483.066 267.895C485.1 267.385 487.134 264.32 487.643 261.771V257.177C487.643 256.157 488.66 255.138 489.678 255.648C492.221 256.667 494.771 257.177 496.805 257.686C498.026 258.094 498.27 258.822 498.06 259.623C475.918 275.221 461.181 296.732 461.195 324.033C461.222 390.359 552.36 414.296 614.472 414.269C704.071 414.228 811.993 395.3 811.952 308.055C811.925 250.911 771.188 230.521 749.799 212.674C736.561 201.963 727.894 188.193 727.888 171.359C727.874 142.787 740.088 127.984 756.377 127.977C768.089 127.977 780.818 140.211 780.831 168.783C780.838 186.637 772.192 197.871 765.064 199.401C759.971 200.42 753.352 197.362 747.242 188.187L744.699 190.225C750.301 200.427 757.435 204.505 765.071 204.505C777.8 204.505 791.54 189.695 791.526 168.776C791.512 139.184 772.666 123.376 756.377 123.383C727.359 123.396 715.66 154.014 715.674 175.443C715.688 200.95 726.382 215.746 736.568 225.941C760.507 248.892 794.11 263.667 794.13 308.055C794.164 374.381 727.996 409.104 615.483 409.158C544.717 409.192 477.505 383.712 477.478 323C477.457 268.921 519.693 234.205 605.731 233.654C665.294 233.118 712.148 266.767 712.677 308.095C713.714 358.097 659.76 381.075 609.874 381.102C545.219 381.13 519.754 355.12 517.699 321.45L513.63 321.96C515.685 366.857 555.913 385.207 609.874 385.18C671.472 385.153 730.01 362.168 729.983 307.579C729.956 252.99 658.166 229.04 605.731 229.067C594.874 229.067 583.718 229.937 572.657 231.636C566.988 231.656 526.827 236.754 526.827 236.754C521.225 237.773 516.133 239.309 510.029 240.335C507.486 241.355 504.936 240.335 503.41 237.787C502.902 236.767 502.902 236.257 501.884 235.748C500.359 234.219 498.826 233.709 497.3 233.709C494.248 235.245 491.19 235.245 488.647 233.709C487.121 232.689 485.588 232.689 484.062 233.709C481.519 234.219 479.987 233.709 477.444 233.199C474.894 231.16 471.842 231.16 469.299 233.716L470.825 235.755C471.333 236.774 471.333 237.793 470.825 239.323C469.808 241.871 470.316 242.898 472.357 243.917C473.883 244.427 474.9 244.936 476.433 245.956C477.45 246.466 477.959 247.995 477.45 249.524C476.433 251.053 475.416 250.543 473.89 250.543C467.78 249.524 463.704 241.871 467.264 236.774L469.299 233.709L464.715 231.16C461.656 229.631 456.061 230.147 453.518 233.716C450.975 236.271 448.425 236.781 444.356 235.252C442.83 234.232 440.789 234.232 438.755 235.768C435.194 237.814 432.136 239.343 428.067 239.343C426.541 239.343 425.517 239.343 424.506 240.362C421.448 242.911 418.396 244.957 415.853 248.022C414.836 248.532 414.327 250.061 413.819 251.08C413.31 256.184 413.819 260.262 418.912 262.811V263.321C420.438 264.34 420.953 265.869 419.42 267.399C417.894 269.437 416.369 270.973 413.825 271.993C410.265 274.032 406.698 275.058 402.629 277.607C398.045 280.162 392.45 282.201 388.381 285.776C385.838 286.795 383.288 287.822 380.745 287.312C379.219 287.312 377.693 286.802 375.652 286.293L360.888 284.77C358.339 284.26 356.304 285.79 354.27 287.326C352.744 288.345 351.727 288.855 350.201 289.371C345.616 289.371 341.039 290.907 336.454 291.927C332.887 292.953 330.344 294.992 327.801 298.567C326.275 300.606 324.743 300.606 322.708 299.586C319.65 298.567 319.65 297.038 320.667 293.972L323.719 285.3C322.701 284.791 322.193 284.791 321.175 285.81L320.158 288.359C318.124 291.424 316.089 291.424 314.048 288.359C312.007 285.3 310.99 284.281 307.429 285.3C306.751 285.64 306.073 285.81 305.395 285.81C300.817 286.829 298.776 288.875 299.291 293.463L298.789 298.567V300.096L297.264 299.077C295.738 298.057 294.205 296.528 292.679 294.999C291.153 293.979 290.129 293.979 289.119 294.999C287.593 297.038 286.576 298.574 283.524 298.574C282.507 298.064 281.49 299.083 281.998 300.103C283.015 302.652 283.531 305.717 287.091 305.71H288.108C289.465 304.006 290.993 304.006 292.693 305.71C294.219 306.729 295.236 307.239 296.26 308.259C298.294 309.788 300.336 309.788 302.879 308.768C303.387 308.768 303.896 308.259 304.913 308.259C307.456 307.239 308.474 304.684 306.439 301.116C305.93 299.077 304.906 297.031 304.398 294.992C304.398 294.482 304.906 293.972 304.906 293.972C305.415 293.972 305.924 293.972 306.432 294.482C306.432 296.011 306.941 298.05 307.456 299.077C307.965 302.135 309.498 302.645 312.549 301.625C313.058 301.116 314.075 301.116 314.075 301.116C317.134 301.625 319.677 305.703 318.151 308.259C317.642 310.297 317.134 312.343 316.116 313.872C314.591 317.447 311.539 319.996 307.972 322.042C306.446 323.571 304.92 323.061 303.387 320.512C302.37 318.983 301.861 316.944 300.837 315.415C298.803 312.866 296.762 311.847 293.71 312.866C291.676 313.376 289.634 313.893 287.6 314.912C285.565 315.932 283.524 316.448 280.981 314.912C278.438 314.402 276.912 313.893 274.871 314.912C272.836 316.441 271.31 316.958 269.269 317.977C268.761 318.997 267.235 319.507 266.217 319.507C261.125 318.997 258.073 321.552 255.53 325.637C254.512 326.656 252.987 327.166 250.945 328.192C249.419 328.702 247.894 329.212 246.368 330.748C242.299 335.342 238.223 337.891 232.113 336.368C230.587 336.368 229.57 336.368 229.061 337.898C228.044 338.917 227.027 340.446 225.501 340.963C224.484 341.982 223.466 341.982 222.449 342.499C219.397 343.518 217.865 344.028 219.906 347.093C220.93 349.642 220.415 351.171 217.872 352.197C217.363 352.197 216.346 352.707 215.322 352.707C212.779 353.726 209.211 353.726 206.668 353.733C203.617 354.753 200.05 355.269 199.541 359.347C199.541 360.367 198.524 361.386 198.015 361.896L195.981 365.471C195.472 366.49 194.963 368.026 193.946 369.046C192.42 372.104 190.386 374.659 189.369 377.718C187.843 381.293 186.825 382.822 183.265 383.332C180.207 383.841 177.664 384.358 174.612 385.887C174.103 385.887 173.086 386.906 173.086 387.926L175.12 389.455C175.629 389.965 176.646 389.455 177.664 388.945M405.274 399.045C404.765 399.045 403.239 399.045 402.731 398.535C400.69 397.006 399.164 394.967 399.164 391.902C399.164 391.392 399.164 390.882 400.181 390.373C400.69 389.353 401.707 388.334 402.724 387.307C403.233 388.327 403.233 389.856 403.233 390.876C403.233 392.405 403.741 393.424 405.274 394.96C405.783 394.96 405.783 395.98 405.783 396.489C405.783 396.999 405.783 398.019 405.274 399.038M400.167 368.434C401.185 366.905 402.202 366.905 403.728 367.414C405.254 368.434 404.745 369.963 404.752 371.492C404.752 372.002 403.735 372.512 403.226 372.512C401.7 374.551 401.191 376.087 403.226 378.126C403.735 379.145 404.752 379.145 404.752 379.655C405.769 380.674 406.793 381.694 405.769 382.713C404.752 384.242 402.717 384.242 401.191 382.713C399.15 380.164 398.133 378.126 398.133 374.041C398.133 372.512 398.642 369.956 400.167 368.427M385.926 384.256C386.435 383.236 387.961 382.727 388.469 382.72C389.486 383.739 389.995 385.275 391.019 386.295C390.51 388.334 389.493 389.353 388.476 389.87C386.95 390.889 386.95 391.915 388.476 393.445C388.476 394.974 390.002 395.484 390.51 396.503C391.528 397.013 392.036 398.032 391.019 399.052C390.002 399.561 388.476 399.561 388.476 399.052C387.459 399.052 385.933 397.522 385.417 397.013C382.868 393.954 383.376 386.811 385.919 384.256M368.613 372.532C368.613 372.022 369.121 371.513 369.63 371.003C370.139 371.003 370.647 370.493 371.156 371.003C371.664 371.003 371.664 372.022 372.173 372.532C370.647 375.59 371.664 379.165 373.197 381.714C373.706 382.224 374.214 382.733 374.214 383.243C374.214 384.772 373.706 385.792 372.18 384.772C370.145 384.263 368.613 382.733 368.104 380.695C368.104 378.146 368.104 375.081 368.613 372.532ZM361.485 385.799H361.994C363.526 387.838 364.544 389.877 366.07 391.406C366.07 391.915 366.07 392.425 365.561 393.445C365.052 392.935 364.544 392.935 364.035 392.935C361.485 391.915 360.977 389.877 361.485 387.831C361.485 386.811 360.977 386.302 361.485 385.792M500.921 256.653C501.43 256.653 501.43 256.144 501.43 255.634V252.576C501.43 246.962 503.973 244.413 509.059 243.387C512.626 243.387 516.187 242.87 519.747 241.851L521.192 241.599C522.717 242.109 522.948 241.185 523.965 241.695C525.491 241.695 526.739 241.695 526.739 241.695C527.919 241.695 529.397 242.7 533.087 241.695C521.056 246.105 509.799 251.665 499.925 258.359C500.026 257.659 500.474 257.551 500.921 256.653ZM459.174 262.791C460.191 263.81 460.7 265.346 459.174 266.366C458.157 267.385 456.122 267.385 455.098 265.856C453.572 263.307 453.057 260.752 452.548 259.222C453.057 255.648 453.566 253.099 456.109 251.57C456.617 251.06 457.635 251.06 459.16 251.06V253.099C456.617 256.674 456.109 259.732 459.16 262.791M455.091 234.735C455.6 233.716 457.126 233.716 457.635 234.225C458.143 234.735 459.16 235.245 459.167 236.774C459.167 236.774 459.167 237.793 458.15 238.303C456.624 240.342 456.116 242.898 456.116 245.446C455.607 245.956 455.098 246.466 455.098 246.975C454.59 246.975 453.572 246.466 453.572 245.956L452.04 242.388C452.548 239.329 453.566 236.774 455.091 234.735ZM454.596 269.94C456.122 268.411 457.139 268.921 457.655 270.96C457.655 271.47 457.655 273.509 457.146 274.528C456.129 275.547 456.129 276.567 457.655 277.077C458.164 277.586 459.181 277.586 459.181 278.096C459.689 279.116 460.707 280.135 460.198 280.645C460.198 281.664 458.672 282.174 457.655 282.181C454.603 283.2 452.562 280.652 452.053 278.103C451.545 277.593 451.545 276.574 451.545 276.064C451.545 273.515 452.562 270.96 454.596 269.94ZM447.462 256.681C447.462 257.7 446.954 259.739 445.936 260.256C443.902 263.314 443.902 262.811 444.41 266.379C444.919 267.399 445.936 268.418 445.943 269.437C445.943 269.947 445.943 270.967 445.435 270.967H443.4C440.85 269.947 440.342 267.399 440.342 264.843C439.826 262.294 440.843 260.249 441.867 257.7C441.867 255.661 442.885 255.151 445.428 255.151C445.936 255.661 447.462 256.171 447.462 256.681ZM441.854 237.8C442.871 236.781 443.895 237.291 443.895 238.31C443.895 239.839 443.895 241.885 442.878 242.904C442.369 244.434 442.878 245.963 443.386 247.499L444.912 252.093C444.912 252.603 444.404 253.622 443.895 253.622C443.895 254.132 442.369 253.622 441.861 253.113C440.843 251.583 439.819 249.544 438.802 247.499V240.865C439.819 239.846 440.328 238.317 441.854 237.807M420.987 245.976C421.495 245.976 422.513 244.957 423.021 244.957C423.53 244.957 425.056 245.467 425.056 245.976C426.073 250.054 427.606 253.119 430.149 256.178C430.149 256.687 430.149 257.197 430.657 258.217C430.149 258.726 429.64 259.236 429.132 259.236C424.547 258.217 419.963 252.61 420.98 247.506V245.976H420.987ZM409.302 300.062C409.811 297.513 410.319 294.448 411.845 291.9C412.354 289.861 413.88 288.325 413.371 286.286C412.863 284.247 413.88 282.711 415.914 281.182C417.44 280.162 418.966 278.116 421.516 277.607C422.024 277.097 422.533 276.078 423.042 275.058C423.55 271.483 428.643 268.425 431.695 268.425C433.729 268.935 433.729 269.954 433.221 270.973C431.695 274.548 429.661 277.607 428.135 280.672C427.117 283.221 425.592 285.776 425.592 287.815V289.344C426.1 289.344 426.609 289.344 427.117 288.834C427.626 287.305 428.643 285.769 429.152 284.75C431.186 281.691 432.712 279.136 434.747 276.587C436.273 274.542 437.805 275.051 438.822 277.097C440.355 279.646 441.881 281.685 443.407 283.73C443.915 284.75 444.424 285.769 444.424 286.279C444.424 289.337 444.424 291.893 444.939 294.951C444.431 299.036 443.922 303.114 440.362 307.198C438.327 308.727 437.31 311.283 436.293 314.341C434.767 316.897 433.75 318.426 431.207 319.445C428.155 320.465 427.138 323.02 425.605 325.569C423.062 327.608 423.062 328.118 420.512 326.079C420.004 326.079 419.495 325.569 418.986 325.569C416.436 324.549 416.436 323.53 416.436 320.465C417.454 316.897 418.471 313.832 418.98 309.747L420.505 305.662C420.505 304.643 419.997 304.643 419.488 304.643L416.436 307.708C415.419 312.302 414.402 316.38 412.367 320.465L410.842 323.523C408.807 323.014 409.824 321.484 409.824 320.465V310.773C409.824 309.244 409.824 307.715 409.309 306.689C409.309 304.65 408.794 302.094 409.309 300.055M311.593 381.231L312.102 377.663C312.61 375.115 312.61 372.559 313.119 370.52L314.645 363.377C315.662 361.338 315.662 359.293 315.662 356.234C315.153 353.686 315.662 352.15 318.205 350.621L323.8 344.497C325.834 340.922 329.395 338.883 333.47 338.883C334.488 338.883 336.014 338.883 336.529 340.412C337.038 341.941 336.02 342.968 335.003 343.477C332.969 344.497 330.426 346.543 327.876 348.072C325.841 349.601 325.841 350.111 327.876 352.157C328.893 353.686 328.893 355.215 327.367 356.241C323.807 364.404 319.738 372.573 315.669 380.226C315.669 381.245 315.16 381.755 314.143 382.265C313.634 382.774 313.126 382.774 312.108 383.801C311.6 382.781 311.6 381.762 311.6 381.245M332.46 363.364C330.934 370.507 330.432 377.65 327.381 383.773C326.363 386.839 324.838 389.897 321.277 390.916C319.751 390.916 318.727 391.936 317.717 392.452C317.208 393.472 316.7 393.472 315.682 393.472C314.157 394.491 313.139 393.472 313.139 390.923C314.157 388.884 315.174 385.819 316.7 383.27C319.751 379.695 322.294 375.108 324.329 371.023C325.346 367.965 327.381 364.9 328.906 362.861C329.415 361.841 330.941 361.841 331.45 361.841C331.958 361.841 332.975 362.861 332.467 363.371M344.674 356.724C344.165 358.253 344.674 360.299 344.674 361.828C344.674 364.383 344.674 367.442 343.656 370.5C343.148 373.565 339.587 376.114 335.512 374.585C333.986 373.565 333.979 372.036 333.979 369.99C334.996 365.906 335.498 361.828 337.031 357.233C338.557 353.658 340.591 350.09 342.626 346.515C343.134 345.496 343.643 344.986 344.66 344.477C345.169 345.496 346.186 346.515 346.186 347.535C345.677 351.103 344.667 353.658 344.667 356.717M354.344 355.188L352.818 356.717C352.31 357.736 350.784 357.736 350.784 356.207C350.275 355.188 350.275 353.658 350.275 352.632C350.784 350.593 351.292 347.528 351.292 344.979L352.31 343.96C352.818 342.941 353.327 341.411 354.344 341.411C355.87 341.921 355.87 343.45 355.87 344.47C356.379 348.554 355.368 352.122 354.344 355.181M367.053 307.225L363.493 312.33C361.458 315.395 359.424 317.943 357.389 321.518C356.372 323.048 354.337 324.583 352.296 324.583L344.66 326.119C342.626 326.119 340.584 325.61 339.567 323.061L335.491 320.512C333.966 320.003 333.966 318.983 335.491 318.474C338.034 316.428 341.093 314.899 344.145 312.86C345.162 312.35 346.179 313.369 347.203 315.408C347.203 316.428 347.712 316.938 347.712 317.957C348.729 317.447 349.746 316.938 350.255 316.428C351.272 316.428 351.781 315.408 352.289 314.899L361.96 304.181C361.96 303.841 362.129 303.671 362.469 303.671L367.562 302.135C367.562 304.174 367.562 305.703 367.053 307.239M325.312 313.879C326.329 311.84 326.838 310.304 326.329 308.265C326.329 307.246 327.347 305.717 328.364 304.69C330.398 302.142 332.941 300.606 335.491 299.077C337.017 298.567 338.034 298.057 339.56 297.038C340.578 296.528 342.103 294.999 343.636 294.489C348.729 293.463 354.324 292.953 359.925 293.463C361.96 293.463 363.493 292.953 365.012 290.907C366.029 289.378 368.07 288.352 370.105 289.371C370.613 289.881 372.146 289.881 372.648 289.881C373.665 290.391 374.174 290.9 375.198 292.43C374.18 292.939 374.18 293.959 373.672 293.959C368.579 297.024 362.984 299.58 356.365 299.58C353.822 299.58 351.272 300.089 348.729 300.606C347.712 300.606 346.695 300.606 345.169 301.625C345.169 301.625 344.66 301.625 344.66 302.135C344.66 302.645 345.169 303.154 345.677 303.154L347.719 304.684C347.21 305.703 346.701 307.232 345.684 307.239L339.065 310.304C335.498 311.833 332.446 313.879 328.886 315.408C328.378 315.408 327.869 315.918 327.36 315.918C326.852 315.918 325.834 315.918 325.326 315.408C324.817 314.899 324.817 313.879 325.326 313.879M308.514 332.76C311.573 331.23 315.642 330.204 318.693 330.204C321.236 329.694 323.786 329.185 325.821 330.714C326.329 331.224 327.347 331.224 327.347 332.243L326.329 333.772C325.821 334.282 324.804 334.792 324.804 335.301C322.261 336.321 319.711 338.367 317.168 339.896C315.642 341.425 314.116 342.444 313.607 345C313.607 347.039 312.081 348.575 310.047 349.594C308.521 350.614 307.504 349.594 307.504 348.575C306.48 344.497 306.48 340.412 306.48 336.328C305.964 334.289 306.988 333.779 308.514 332.753M295.792 335.315C296.809 335.825 296.809 338.89 295.792 340.419C293.249 342.458 293.758 344.497 294.775 347.052C294.775 347.562 295.283 348.582 295.283 349.601C295.283 350.111 294.775 351.13 294.266 351.647C294.266 352.157 292.232 351.647 292.232 351.137C291.214 349.608 290.197 347.059 290.19 345.523C289.682 345.013 289.682 344.504 289.682 344.504H289.173C290.19 341.955 290.19 339.4 291.716 337.361C292.225 335.322 294.768 334.805 295.785 335.315M290.184 314.912H292.727V316.951C292.218 317.461 292.218 317.971 291.709 317.971C290.184 320.519 289.166 323.075 290.184 325.623V327.153L289.166 328.172C288.658 328.682 287.641 327.662 287.641 327.153C287.132 325.623 286.623 324.094 286.108 321.539C285.599 317.971 287.634 316.435 290.177 314.905M285.111 354.712C286.637 356.241 287.152 357.77 285.62 359.809C283.585 361.855 283.077 363.894 283.585 366.443C284.094 367.462 284.602 369.501 283.077 369.501C281.551 370.52 280.533 368.991 280.025 367.462C279.516 365.933 279.516 364.404 279.001 363.384C279.001 360.319 281.035 357.77 283.07 355.222C283.578 353.692 284.087 353.692 285.104 354.712M278.485 334.819C279.503 333.29 280.52 333.799 281.028 335.329C282.554 337.368 282.046 338.897 279.503 340.433C277.977 341.962 277.468 342.981 278.485 345.027V346.556C278.485 347.066 277.977 348.595 276.96 348.595C276.96 348.595 275.434 348.085 275.434 347.576C274.416 346.556 274.416 345.027 274.416 344.008C274.925 340.439 275.942 336.355 278.485 334.826M274.911 317.468C275.929 316.958 276.437 317.468 276.946 317.977C276.946 317.977 276.946 318.997 276.437 318.997C273.894 321.545 274.403 324.611 276.437 326.65L276.946 327.159C276.946 328.179 276.437 329.198 276.437 329.715H273.386C271.86 327.676 271.344 325.637 271.344 323.081C271.344 318.997 272.362 317.977 274.905 317.468M266.272 351.66C266.272 352.17 266.272 352.68 265.763 353.699C265.255 355.228 266.272 356.758 267.296 358.294C268.313 359.313 269.33 360.842 269.337 362.371C269.337 363.391 269.337 364.41 267.811 363.391C263.227 361.862 260.677 356.764 261.694 352.68C262.203 352.17 262.711 351.151 262.711 350.641C263.729 350.131 264.746 349.621 265.255 349.621C265.763 349.621 266.272 351.151 266.272 351.66ZM260.663 325.127C261.172 324.617 262.698 324.617 263.715 324.617L264.732 327.166C264.224 327.676 263.715 328.695 262.698 329.212C261.172 329.722 261.172 331.251 261.172 333.296V334.316C261.172 335.335 260.663 336.355 260.155 336.355C259.646 336.355 258.629 336.355 257.612 335.335C257.103 334.826 256.594 333.296 256.594 331.767C257.103 328.702 258.629 326.663 260.663 325.134M237.267 373.613C237.267 375.142 237.267 376.161 236.25 377.697C235.741 380.246 234.724 381.782 234.724 383.821C233.198 392.493 228.62 398.624 221.493 403.218C220.476 403.218 219.458 403.728 218.441 404.237C214.874 402.708 212.331 403.728 209.279 405.264C208.771 405.773 207.245 405.773 206.736 404.754V402.205C207.753 400.676 208.771 399.147 210.297 398.121C214.881 394.546 218.95 390.978 222.51 385.873C223.527 384.51 224.545 384.68 225.562 386.383C226.579 387.403 226.579 386.893 227.596 386.383C228.105 385.873 228.105 385.364 228.105 384.344C229.631 381.796 230.648 378.221 232.174 375.162C232.683 373.633 233.7 372.607 234.717 372.104C236.243 371.084 237.769 372.104 237.267 373.633M250.505 386.356C249.487 387.375 247.961 387.375 246.429 386.356C243.886 384.827 242.862 383.298 242.862 381.259C243.37 377.684 245.405 375.645 247.948 373.606C248.965 373.606 249.474 374.116 248.965 375.135C248.965 376.155 248.965 377.684 248.456 378.703C247.439 380.232 247.439 380.749 248.965 382.278L249.474 382.788C250.491 383.807 251 384.827 250.491 386.356M251 349.112C252.017 348.602 253.034 348.602 253.549 349.621C253.549 351.151 253.549 353.196 253.041 353.706C251.006 356.262 251.006 358.81 253.041 361.359C253.549 362.378 254.567 362.888 253.041 364.417C251.515 365.437 250.498 364.927 249.474 362.888L247.941 356.255C247.941 353.706 248.958 351.151 250.993 349.112M247.934 332.277C248.443 332.277 248.952 332.277 249.969 331.767L250.477 333.806C250.477 334.316 249.969 334.826 249.969 335.335C248.443 336.355 248.952 338.394 249.969 340.439C249.969 340.439 250.477 340.949 250.477 341.459C249.969 341.969 250.477 342.988 249.46 344.008C248.952 344.517 247.934 344.008 246.917 343.498C245.391 342.988 244.367 341.459 244.367 338.394C244.876 336.355 245.384 333.799 247.928 332.27M195.018 395.055C194 392.507 195.018 390.468 196.028 387.912C197.554 384.854 198.571 381.789 200.097 379.24C201.114 377.711 201.623 375.665 201.114 373.626C200.606 371.078 201.114 368.522 204.166 366.483C204.166 365.974 204.675 365.974 204.675 365.974C205.183 362.915 208.235 361.379 209.252 358.321C210.778 356.275 212.304 355.765 214.345 354.746C218.421 353.726 222.49 352.19 224.524 348.106C225.535 345.557 227.576 344.531 230.126 344.021C231.652 343.511 232.669 342.492 233.686 341.473C235.721 339.427 238.779 339.427 240.814 341.975C242.34 344.014 243.872 345.544 245.907 347.589C246.415 348.609 246.415 349.118 246.924 349.628L245.398 353.713C242.346 358.307 238.786 361.366 234.202 363.921C230.133 366.477 225.548 368.515 221.479 371.071C220.971 371.581 219.953 372.6 219.445 372.6C218.428 373.62 218.428 374.639 219.445 375.658C221.479 377.697 220.462 379.227 218.936 381.272C214.359 387.396 209.266 394.029 204.18 400.153C201.128 404.237 197.561 407.296 192.983 409.851C191.966 409.851 190.949 410.871 189.931 409.851C189.423 408.832 189.423 407.302 189.423 406.283C190.44 404.244 191.966 403.218 192.983 401.689C195.018 400.159 196.035 398.114 195.018 395.055Z" fill="#F1F0EC"/>
</g>
<g filter="url(#filter5_i_567_13567)">
<path d="M615.617 56.0923C624.473 56.0923 631.655 48.8949 631.655 40.0188C631.655 31.1427 624.473 23.9453 615.617 23.9453C606.76 23.9453 599.578 31.1427 599.578 40.0188C599.578 48.8949 606.76 56.0923 615.617 56.0923Z" fill="#F1F0EC"/>
</g>
<g filter="url(#filter6_i_567_13567)">
<path d="M587.285 297.065L581.826 275.059H578.51L573.044 297.072L567.822 275.514L567.714 275.059H564.16L571.349 303.033H574.699L580.171 281.121L585.637 303.033H588.981L596.183 275.059H592.629L587.285 297.065Z" fill="#F1F0EC"/>
</g>
<g filter="url(#filter7_i_567_13567)">
<path d="M603.585 275.059H600.344V303.033H603.585V275.059Z" fill="#F1F0EC"/>
</g>
<g filter="url(#filter8_i_567_13567)">
<path d="M627.112 296.97L613.583 275.337L613.413 275.059H610.172V303.033H613.407V280.944L626.997 302.754L627.173 303.033H630.388V275.059H627.112V296.97Z" fill="#F1F0EC"/>
</g>
<g filter="url(#filter9_i_567_13567)">
<path d="M654.721 278.28V275.059H636.695V303.033H655.297V299.818H639.937V290.208H653.914V286.952H639.937V278.28H654.721Z" fill="#F1F0EC"/>
</g>
<g filter="url(#filter10_i_567_13567)">
<path d="M557.079 310.766H545.93V338.74H556.977C559.479 338.74 561.527 338.142 563.053 336.966C564.837 335.566 565.745 333.479 565.745 330.754C565.745 328.858 565.237 327.247 564.226 325.949C563.528 325.113 562.667 324.481 561.656 324.066C562.355 323.624 562.972 323.054 563.48 322.367C564.335 321.164 564.769 319.723 564.769 318.085C564.769 315.829 564.057 314.014 562.667 312.703C561.297 311.425 559.425 310.772 557.079 310.772M549.164 313.946H556.678C558.265 313.946 559.445 314.293 560.286 315C561.107 315.727 561.527 316.835 561.527 318.303C561.527 319.771 561.107 320.845 560.252 321.613C559.405 322.36 558.191 322.741 556.645 322.741H549.171V313.953L549.164 313.946ZM562.504 330.713C562.504 332.378 561.961 333.608 560.856 334.465C559.879 335.185 558.55 335.552 556.909 335.552H549.171V325.874H556.882C558.659 325.874 560.001 326.261 560.985 327.057C561.995 327.852 562.504 329.082 562.504 330.713Z" fill="#F1F0EC"/>
</g>
<g filter="url(#filter11_i_567_13567)">
<path d="M574.578 310.766H571.336V338.74H574.578V310.766Z" fill="#F1F0EC"/>
</g>
<g filter="url(#filter12_i_567_13567)">
<path d="M585.295 314.525C586.298 313.845 587.722 313.499 589.526 313.499C591.486 313.499 592.938 313.974 593.962 314.953C595.013 315.952 595.65 317.393 595.901 319.357L595.969 319.881H599.183L599.136 319.242C598.919 316.333 597.956 314.076 596.247 312.54C594.585 311.025 592.354 310.25 589.594 310.25C587.017 310.25 584.888 310.868 583.267 312.092C581.382 313.431 580.432 315.381 580.432 317.903C580.432 320.424 581.456 322.164 583.457 323.428C584.318 323.986 586.17 324.706 589.12 325.644C592.483 326.657 593.778 327.323 594.253 327.642C595.718 328.553 596.43 329.79 596.43 331.407C596.43 332.773 595.854 333.888 594.741 334.703C593.494 335.553 591.88 335.988 589.933 335.988C587.987 335.988 586.292 335.485 585.193 334.5C583.959 333.365 583.253 331.652 583.023 329.253L582.969 328.709H579.781L579.815 329.341C580.032 332.726 581.117 335.308 583.043 337.028C584.739 338.523 587.065 339.277 589.96 339.277C592.856 339.277 595.135 338.591 596.878 337.239C598.749 335.77 599.692 333.772 599.692 331.298C599.692 328.675 598.593 326.609 596.444 325.182C595.359 324.427 593.351 323.591 590.103 322.551C587.973 321.872 586.325 321.26 585.62 320.88C584.277 320.091 583.654 319.119 583.654 317.835C583.654 316.326 584.182 315.252 585.281 314.539" fill="#F1F0EC"/>
</g>
<g filter="url(#filter13_i_567_13567)">
<path d="M602.82 313.987H611.63V338.74H614.871V313.987H623.68V310.766H602.82V313.987Z" fill="#F1F0EC"/>
</g>
<g filter="url(#filter14_i_567_13567)">
<path d="M628.117 338.741H631.359V326.847H638.696C640.121 326.847 641.233 327.153 642.006 327.744C642.813 328.356 643.301 329.436 643.416 330.884L643.722 334.554C643.864 336.185 644.203 337.49 644.732 338.435L644.902 338.741H648.645L647.994 337.803C647.397 336.946 647.051 335.757 646.923 334.153L646.583 330.136C646.339 327.758 645.322 326.106 643.552 325.202C644.481 324.72 645.254 324.026 645.858 323.136C646.678 321.838 647.092 320.356 647.092 318.725C647.092 316.217 646.339 314.233 644.854 312.812C643.416 311.46 641.409 310.773 638.866 310.773H628.117V338.747V338.741ZM631.359 313.988H638.629C640.514 313.988 641.83 314.382 642.65 315.205C643.457 316.007 643.85 317.176 643.85 318.793C643.85 320.275 643.444 321.417 642.623 322.266C641.674 323.19 640.378 323.639 638.663 323.639H631.359V313.995V313.988Z" fill="#F1F0EC"/>
</g>
<g filter="url(#filter15_i_567_13567)">
<path d="M652.051 324.752C652.051 328.898 653.075 332.337 655.102 334.974C657.266 337.822 660.263 339.263 664.014 339.263C667.764 339.263 670.714 337.836 672.924 335.022C674.939 332.378 675.969 328.925 675.969 324.752C675.969 320.579 674.973 317.208 672.924 314.531C670.734 311.683 667.743 310.242 664.047 310.242C660.351 310.242 657.3 311.683 655.109 314.531C653.088 317.175 652.058 320.62 652.058 324.752M657.585 316.672C659.144 314.592 661.314 313.532 664.034 313.532C666.753 313.532 668.856 314.544 670.422 316.638C671.948 318.622 672.714 321.348 672.714 324.746C672.714 328.144 671.941 330.842 670.415 332.867C668.828 334.954 666.733 335.967 664 335.967C661.267 335.967 659.104 334.906 657.544 332.827C656.018 330.808 655.279 328.164 655.279 324.746C655.279 321.327 656.052 318.731 657.578 316.672" fill="#F1F0EC"/>
</g>
<g filter="url(#filter16_i_567_13567)">
<path d="M184.791 289.454C194.977 289.454 197.52 285.879 203.624 279.239L200.565 276.69C199.04 278.22 195.479 282.304 190.386 281.795C185.293 281.285 177.657 279.253 177.65 262.921L177.603 161.532C187.579 162.382 197.446 162.62 207.13 162.402V158.318C197.439 158.318 187.572 157.957 177.603 157.04L177.562 71.0858C167.383 68.5371 158.723 62.9301 147.52 52.219L144.977 54.7744C155.671 67.5245 159.245 84.8689 159.252 101.194L159.279 154.695C151.663 153.431 144.014 151.793 136.371 149.673V154.267C144.021 156.381 151.67 158.025 159.286 159.269L159.333 254.826C140.216 214.768 97.6345 182.255 76.3064 162.45C48.2917 136.44 45.2264 108.384 45.2196 90.5235C45.2128 72.6693 61.4886 45.6197 90.507 45.6061C121.051 45.5925 136.337 76.1967 136.351 104.769C136.364 133.341 120.082 149.163 100.225 149.17C86.4788 149.17 79.86 139.994 73.2344 128.264L70.1826 129.793C76.8083 143.569 84.9597 154.281 102.266 154.267C119.573 154.26 151.643 142.509 151.623 100.671C151.602 60.8776 124.103 39.4621 95.5932 39.4689C65.049 39.4825 29.4185 62.4612 29.4389 107.868C29.4592 153.275 75.8046 189.479 84.9733 197.125C94.142 204.771 152.199 256.791 152.219 301.688C152.24 346.585 131.393 397.619 84.0442 397.639C28.5573 397.666 24.963 343.071 24.9495 309.911C24.9291 266.543 44.7653 232.351 75.3095 232.337C105.854 232.324 131.325 261.902 131.339 292.003C131.353 322.104 108.96 343.03 90.6359 343.044C77.3982 343.044 71.7967 337.953 67.7209 334.888L65.1778 337.444C73.8379 344.58 78.9309 347.135 90.6359 347.128C102.341 347.128 135.937 334.351 135.917 292.003C135.896 251.693 102.795 227.729 74.2855 227.743C39.6723 227.784 -0.0271124 257.905 1.38937e-05 313.004C0.0271402 367.083 34.6607 403.804 83.5288 403.783C127.819 403.763 169.038 365.479 169.004 294.558C169.004 290.684 168.706 286.858 168.163 283.072C173.27 287.517 179.671 289.447 184.785 289.447" fill="#F1F0EC"/>
</g>
<g filter="url(#filter17_i_567_13567)">
<path d="M217.097 273.108C225.954 273.108 233.135 265.911 233.135 257.034C233.135 248.158 225.954 240.961 217.097 240.961C208.24 240.961 201.059 248.158 201.059 257.034C201.059 265.911 208.24 273.108 217.097 273.108Z" fill="#F1F0EC"/>
</g>
</g>
<defs>
<filter id="filter0_i_567_13567" x="170.535" y="8.23828" width="223.358" height="323.615" filterUnits="userSpaceOnUse" color-interpolation-filters="sRGB">
<feFlood flood-opacity="0" result="BackgroundImageFix"/>
<feBlend mode="normal" in="SourceGraphic" in2="BackgroundImageFix" result="shape"/>
<feColorMatrix in="SourceAlpha" type="matrix" values="0 0 0 0 0 0 0 0 0 0 0 0 0 0 0 0 0 0 127 0" result="hardAlpha"/>
<feOffset dy="1.99123"/>
<feGaussianBlur stdDeviation="0.995613"/>
<feComposite in2="hardAlpha" operator="arithmetic" k2="-1" k3="1"/>
<feColorMatrix type="matrix" values="0 0 0 0 0 0 0 0 0 0 0 0 0 0 0 0 0 0 0.1 0"/>
<feBlend mode="normal" in2="shape" result="effect1_innerShadow_567_13567"/>
</filter>
<filter id="filter1_i_567_13567" x="386.871" y="83.7109" width="81.9688" height="145.375" filterUnits="userSpaceOnUse" color-interpolation-filters="sRGB">
<feFlood flood-opacity="0" result="BackgroundImageFix"/>
<feBlend mode="normal" in="SourceGraphic" in2="BackgroundImageFix" result="shape"/>
<feColorMatrix in="SourceAlpha" type="matrix" values="0 0 0 0 0 0 0 0 0 0 0 0 0 0 0 0 0 0 127 0" result="hardAlpha"/>
<feOffset dy="1.99123"/>
<feGaussianBlur stdDeviation="0.995613"/>
<feComposite in2="hardAlpha" operator="arithmetic" k2="-1" k3="1"/>
<feColorMatrix type="matrix" values="0 0 0 0 0 0 0 0 0 0 0 0 0 0 0 0 0 0 0.1 0"/>
<feBlend mode="normal" in2="shape" result="effect1_innerShadow_567_13567"/>
</filter>
<filter id="filter2_i_567_13567" x="539.531" y="-0.0391846" width="227.878" height="323.855" filterUnits="userSpaceOnUse" color-interpolation-filters="sRGB">
<feFlood flood-opacity="0" result="BackgroundImageFix"/>
<feBlend mode="normal" in="SourceGraphic" in2="BackgroundImageFix" result="shape"/>
<feColorMatrix in="SourceAlpha" type="matrix" values="0 0 0 0 0 0 0 0 0 0 0 0 0 0 0 0 0 0 127 0" result="hardAlpha"/>
<feOffset dy="1.99123"/>
<feGaussianBlur stdDeviation="0.995613"/>
<feComposite in2="hardAlpha" operator="arithmetic" k2="-1" k3="1"/>
<feColorMatrix type="matrix" values="0 0 0 0 0 0 0 0 0 0 0 0 0 0 0 0 0 0 0.1 0"/>
<feBlend mode="normal" in2="shape" result="effect1_innerShadow_567_13567"/>
</filter>
<filter id="filter3_i_567_13567" x="465.219" y="70.9375" width="69.7422" height="141.807" filterUnits="userSpaceOnUse" color-interpolation-filters="sRGB">
<feFlood flood-opacity="0" result="BackgroundImageFix"/>
<feBlend mode="normal" in="SourceGraphic" in2="BackgroundImageFix" result="shape"/>
<feColorMatrix in="SourceAlpha" type="matrix" values="0 0 0 0 0 0 0 0 0 0 0 0 0 0 0 0 0 0 127 0" result="hardAlpha"/>
<feOffset dy="1.99123"/>
<feGaussianBlur stdDeviation="0.995613"/>
<feComposite in2="hardAlpha" operator="arithmetic" k2="-1" k3="1"/>
<feColorMatrix type="matrix" values="0 0 0 0 0 0 0 0 0 0 0 0 0 0 0 0 0 0 0.1 0"/>
<feBlend mode="normal" in2="shape" result="effect1_innerShadow_567_13567"/>
</filter>
<filter id="filter4_i_567_13567" x="173.086" y="123.383" width="638.866" height="295.616" filterUnits="userSpaceOnUse" color-interpolation-filters="sRGB">
<feFlood flood-opacity="0" result="BackgroundImageFix"/>
<feBlend mode="normal" in="SourceGraphic" in2="BackgroundImageFix" result="shape"/>
<feColorMatrix in="SourceAlpha" type="matrix" values="0 0 0 0 0 0 0 0 0 0 0 0 0 0 0 0 0 0 127 0" result="hardAlpha"/>
<feOffset dy="1.99123"/>
<feGaussianBlur stdDeviation="0.995613"/>
<feComposite in2="hardAlpha" operator="arithmetic" k2="-1" k3="1"/>
<feColorMatrix type="matrix" values="0 0 0 0 0 0 0 0 0 0 0 0 0 0 0 0 0 0 0.1 0"/>
<feBlend mode="normal" in2="shape" result="effect1_innerShadow_567_13567"/>
</filter>
<filter id="filter5_i_567_13567" x="599.578" y="23.9453" width="32.0771" height="34.1382" filterUnits="userSpaceOnUse" color-interpolation-filters="sRGB">
<feFlood flood-opacity="0" result="BackgroundImageFix"/>
<feBlend mode="normal" in="SourceGraphic" in2="BackgroundImageFix" result="shape"/>
<feColorMatrix in="SourceAlpha" type="matrix" values="0 0 0 0 0 0 0 0 0 0 0 0 0 0 0 0 0 0 127 0" result="hardAlpha"/>
<feOffset dy="1.99123"/>
<feGaussianBlur stdDeviation="0.995613"/>
<feComposite in2="hardAlpha" operator="arithmetic" k2="-1" k3="1"/>
<feColorMatrix type="matrix" values="0 0 0 0 0 0 0 0 0 0 0 0 0 0 0 0 0 0 0.1 0"/>
<feBlend mode="normal" in2="shape" result="effect1_innerShadow_567_13567"/>
</filter>
<filter id="filter6_i_567_13567" x="564.16" y="275.059" width="32.0225" height="29.9652" filterUnits="userSpaceOnUse" color-interpolation-filters="sRGB">
<feFlood flood-opacity="0" result="BackgroundImageFix"/>
<feBlend mode="normal" in="SourceGraphic" in2="BackgroundImageFix" result="shape"/>
<feColorMatrix in="SourceAlpha" type="matrix" values="0 0 0 0 0 0 0 0 0 0 0 0 0 0 0 0 0 0 127 0" result="hardAlpha"/>
<feOffset dy="1.99123"/>
<feGaussianBlur stdDeviation="0.995613"/>
<feComposite in2="hardAlpha" operator="arithmetic" k2="-1" k3="1"/>
<feColorMatrix type="matrix" values="0 0 0 0 0 0 0 0 0 0 0 0 0 0 0 0 0 0 0.1 0"/>
<feBlend mode="normal" in2="shape" result="effect1_innerShadow_567_13567"/>
</filter>
<filter id="filter7_i_567_13567" x="600.344" y="275.059" width="3.24121" height="29.9652" filterUnits="userSpaceOnUse" color-interpolation-filters="sRGB">
<feFlood flood-opacity="0" result="BackgroundImageFix"/>
<feBlend mode="normal" in="SourceGraphic" in2="BackgroundImageFix" result="shape"/>
<feColorMatrix in="SourceAlpha" type="matrix" values="0 0 0 0 0 0 0 0 0 0 0 0 0 0 0 0 0 0 127 0" result="hardAlpha"/>
<feOffset dy="1.99123"/>
<feGaussianBlur stdDeviation="0.995613"/>
<feComposite in2="hardAlpha" operator="arithmetic" k2="-1" k3="1"/>
<feColorMatrix type="matrix" values="0 0 0 0 0 0 0 0 0 0 0 0 0 0 0 0 0 0 0.1 0"/>
<feBlend mode="normal" in2="shape" result="effect1_innerShadow_567_13567"/>
</filter>
<filter id="filter8_i_567_13567" x="610.172" y="275.059" width="20.2158" height="29.9652" filterUnits="userSpaceOnUse" color-interpolation-filters="sRGB">
<feFlood flood-opacity="0" result="BackgroundImageFix"/>
<feBlend mode="normal" in="SourceGraphic" in2="BackgroundImageFix" result="shape"/>
<feColorMatrix in="SourceAlpha" type="matrix" values="0 0 0 0 0 0 0 0 0 0 0 0 0 0 0 0 0 0 127 0" result="hardAlpha"/>
<feOffset dy="1.99123"/>
<feGaussianBlur stdDeviation="0.995613"/>
<feComposite in2="hardAlpha" operator="arithmetic" k2="-1" k3="1"/>
<feColorMatrix type="matrix" values="0 0 0 0 0 0 0 0 0 0 0 0 0 0 0 0 0 0 0.1 0"/>
<feBlend mode="normal" in2="shape" result="effect1_innerShadow_567_13567"/>
</filter>
<filter id="filter9_i_567_13567" x="636.695" y="275.059" width="18.6016" height="29.9652" filterUnits="userSpaceOnUse" color-interpolation-filters="sRGB">
<feFlood flood-opacity="0" result="BackgroundImageFix"/>
<feBlend mode="normal" in="SourceGraphic" in2="BackgroundImageFix" result="shape"/>
<feColorMatrix in="SourceAlpha" type="matrix" values="0 0 0 0 0 0 0 0 0 0 0 0 0 0 0 0 0 0 127 0" result="hardAlpha"/>
<feOffset dy="1.99123"/>
<feGaussianBlur stdDeviation="0.995613"/>
<feComposite in2="hardAlpha" operator="arithmetic" k2="-1" k3="1"/>
<feColorMatrix type="matrix" values="0 0 0 0 0 0 0 0 0 0 0 0 0 0 0 0 0 0 0.1 0"/>
<feBlend mode="normal" in2="shape" result="effect1_innerShadow_567_13567"/>
</filter>
<filter id="filter10_i_567_13567" x="545.93" y="310.766" width="19.8154" height="29.9652" filterUnits="userSpaceOnUse" color-interpolation-filters="sRGB">
<feFlood flood-opacity="0" result="BackgroundImageFix"/>
<feBlend mode="normal" in="SourceGraphic" in2="BackgroundImageFix" result="shape"/>
<feColorMatrix in="SourceAlpha" type="matrix" values="0 0 0 0 0 0 0 0 0 0 0 0 0 0 0 0 0 0 127 0" result="hardAlpha"/>
<feOffset dy="1.99123"/>
<feGaussianBlur stdDeviation="0.995613"/>
<feComposite in2="hardAlpha" operator="arithmetic" k2="-1" k3="1"/>
<feColorMatrix type="matrix" values="0 0 0 0 0 0 0 0 0 0 0 0 0 0 0 0 0 0 0.1 0"/>
<feBlend mode="normal" in2="shape" result="effect1_innerShadow_567_13567"/>
</filter>
<filter id="filter11_i_567_13567" x="571.336" y="310.766" width="3.24121" height="29.9652" filterUnits="userSpaceOnUse" color-interpolation-filters="sRGB">
<feFlood flood-opacity="0" result="BackgroundImageFix"/>
<feBlend mode="normal" in="SourceGraphic" in2="BackgroundImageFix" result="shape"/>
<feColorMatrix in="SourceAlpha" type="matrix" values="0 0 0 0 0 0 0 0 0 0 0 0 0 0 0 0 0 0 127 0" result="hardAlpha"/>
<feOffset dy="1.99123"/>
<feGaussianBlur stdDeviation="0.995613"/>
<feComposite in2="hardAlpha" operator="arithmetic" k2="-1" k3="1"/>
<feColorMatrix type="matrix" values="0 0 0 0 0 0 0 0 0 0 0 0 0 0 0 0 0 0 0.1 0"/>
<feBlend mode="normal" in2="shape" result="effect1_innerShadow_567_13567"/>
</filter>
<filter id="filter12_i_567_13567" x="579.781" y="310.25" width="19.9111" height="31.0187" filterUnits="userSpaceOnUse" color-interpolation-filters="sRGB">
<feFlood flood-opacity="0" result="BackgroundImageFix"/>
<feBlend mode="normal" in="SourceGraphic" in2="BackgroundImageFix" result="shape"/>
<feColorMatrix in="SourceAlpha" type="matrix" values="0 0 0 0 0 0 0 0 0 0 0 0 0 0 0 0 0 0 127 0" result="hardAlpha"/>
<feOffset dy="1.99123"/>
<feGaussianBlur stdDeviation="0.995613"/>
<feComposite in2="hardAlpha" operator="arithmetic" k2="-1" k3="1"/>
<feColorMatrix type="matrix" values="0 0 0 0 0 0 0 0 0 0 0 0 0 0 0 0 0 0 0.1 0"/>
<feBlend mode="normal" in2="shape" result="effect1_innerShadow_567_13567"/>
</filter>
<filter id="filter13_i_567_13567" x="602.82" y="310.766" width="20.8604" height="29.9652" filterUnits="userSpaceOnUse" color-interpolation-filters="sRGB">
<feFlood flood-opacity="0" result="BackgroundImageFix"/>
<feBlend mode="normal" in="SourceGraphic" in2="BackgroundImageFix" result="shape"/>
<feColorMatrix in="SourceAlpha" type="matrix" values="0 0 0 0 0 0 0 0 0 0 0 0 0 0 0 0 0 0 127 0" result="hardAlpha"/>
<feOffset dy="1.99123"/>
<feGaussianBlur stdDeviation="0.995613"/>
<feComposite in2="hardAlpha" operator="arithmetic" k2="-1" k3="1"/>
<feColorMatrix type="matrix" values="0 0 0 0 0 0 0 0 0 0 0 0 0 0 0 0 0 0 0.1 0"/>
<feBlend mode="normal" in2="shape" result="effect1_innerShadow_567_13567"/>
</filter>
<filter id="filter14_i_567_13567" x="628.117" y="310.773" width="20.5283" height="29.9652" filterUnits="userSpaceOnUse" color-interpolation-filters="sRGB">
<feFlood flood-opacity="0" result="BackgroundImageFix"/>
<feBlend mode="normal" in="SourceGraphic" in2="BackgroundImageFix" result="shape"/>
<feColorMatrix in="SourceAlpha" type="matrix" values="0 0 0 0 0 0 0 0 0 0 0 0 0 0 0 0 0 0 127 0" result="hardAlpha"/>
<feOffset dy="1.99123"/>
<feGaussianBlur stdDeviation="0.995613"/>
<feComposite in2="hardAlpha" operator="arithmetic" k2="-1" k3="1"/>
<feColorMatrix type="matrix" values="0 0 0 0 0 0 0 0 0 0 0 0 0 0 0 0 0 0 0.1 0"/>
<feBlend mode="normal" in2="shape" result="effect1_innerShadow_567_13567"/>
</filter>
<filter id="filter15_i_567_13567" x="652.051" y="310.242" width="23.9189" height="31.0119" filterUnits="userSpaceOnUse" color-interpolation-filters="sRGB">
<feFlood flood-opacity="0" result="BackgroundImageFix"/>
<feBlend mode="normal" in="SourceGraphic" in2="BackgroundImageFix" result="shape"/>
<feColorMatrix in="SourceAlpha" type="matrix" values="0 0 0 0 0 0 0 0 0 0 0 0 0 0 0 0 0 0 127 0" result="hardAlpha"/>
<feOffset dy="1.99123"/>
<feGaussianBlur stdDeviation="0.995613"/>
<feComposite in2="hardAlpha" operator="arithmetic" k2="-1" k3="1"/>
<feColorMatrix type="matrix" values="0 0 0 0 0 0 0 0 0 0 0 0 0 0 0 0 0 0 0.1 0"/>
<feBlend mode="normal" in2="shape" result="effect1_innerShadow_567_13567"/>
</filter>
<filter id="filter16_i_567_13567" x="0" y="39.4689" width="207.13" height="366.305" filterUnits="userSpaceOnUse" color-interpolation-filters="sRGB">
<feFlood flood-opacity="0" result="BackgroundImageFix"/>
<feBlend mode="normal" in="SourceGraphic" in2="BackgroundImageFix" result="shape"/>
<feColorMatrix in="SourceAlpha" type="matrix" values="0 0 0 0 0 0 0 0 0 0 0 0 0 0 0 0 0 0 127 0" result="hardAlpha"/>
<feOffset dy="1.99123"/>
<feGaussianBlur stdDeviation="0.995613"/>
<feComposite in2="hardAlpha" operator="arithmetic" k2="-1" k3="1"/>
<feColorMatrix type="matrix" values="0 0 0 0 0 0 0 0 0 0 0 0 0 0 0 0 0 0 0.1 0"/>
<feBlend mode="normal" in2="shape" result="effect1_innerShadow_567_13567"/>
</filter>
<filter id="filter17_i_567_13567" x="201.059" y="240.961" width="32.0771" height="34.1382" filterUnits="userSpaceOnUse" color-interpolation-filters="sRGB">
<feFlood flood-opacity="0" result="BackgroundImageFix"/>
<feBlend mode="normal" in="SourceGraphic" in2="BackgroundImageFix" result="shape"/>
<feColorMatrix in="SourceAlpha" type="matrix" values="0 0 0 0 0 0 0 0 0 0 0 0 0 0 0 0 0 0 127 0" result="hardAlpha"/>
<feOffset dy="1.99123"/>
<feGaussianBlur stdDeviation="0.995613"/>
<feComposite in2="hardAlpha" operator="arithmetic" k2="-1" k3="1"/>
<feColorMatrix type="matrix" values="0 0 0 0 0 0 0 0 0 0 0 0 0 0 0 0 0 0 0.1 0"/>
<feBlend mode="normal" in2="shape" result="effect1_innerShadow_567_13567"/>
</filter>
<clipPath id="clip0_567_13567">
<rect width="812" height="417" fill="white"/>
</clipPath>
</defs>
</svg>
